# xmcd CD database file
#
# Track frame offsets:
#	150
#	12055
#	25997
#	37740
#	49525
#	62902
#	78667
#	93067
#	105005
#	117282
#	132317
#	143840
#	159165
#	171515
#	184950
#
# Disc length: 2595 seconds
#
# Revision: 0
# Processed by: cddbd v1.4PL0 Copyright (c) Steve Scherf et al.
# Submitted via: Feurio! 1.61 - http://www.feurio.com
#
DISCID=b40a210f
DTITLE=Tom Astor - Die Tom Astor Story 
DYEAR=1900
DGENRE=
TTITLE0=Freunde ( 1988 ) 
TTITLE1=Ich bin kein Dichter - Kein Poet ( 1991 ) 
TTITLE2=Ein unbekannter Stuntman ( 1986 ) 
TTITLE3=Ich brauch' eine kleine Dosis Freiheit ( 1988 ) 
TTITLE4=Der kleine Trucker ( 1991 ) 
TTITLE5=Ich hau den Lukas ( Mr. Nothing goes right ) 
TTITLE6=Hey Darling ( Deinen Höhenflug den halt' ich nicht mehr aus ) ( 1990 ) 
TTITLE7=Gute Fahrt auf allen Straßen ( 1991 ) 
TTITLE8=Ich wünsch dir Hals- und Beinbruch ( 1986 ) 
TTITLE9=Halt Abstand Junge ( 1991 ) 
TTITLE10=Blue Jeans, Rock'n' Roll und Elvis ( 1988 ) 
TTITLE11=Es kommt sowieso niemals so ( 1991 ) 
TTITLE12=Ich bin daführ, daß wir dagegen sind ( 1988 ) 
TTITLE13=Alte Freunde, überhol dich nicht selber ( 1986 ) 
TTITLE14=Adios amigo
EXTD=
EXTT0=
EXTT1=
EXTT2=
EXTT3=
EXTT4=
EXTT5=
EXTT6=
EXTT7=
EXTT8=
EXTT9=
EXTT10=
EXTT11=
EXTT12=
EXTT13=
EXTT14=
PLAYORDER=
